<?xml version="1.0" standalone="no"?>
<!DOCTYPE svg PUBLIC "-//W3C//DTD SVG 20010904//EN"
 "http://www.w3.org/TR/2001/REC-SVG-20010904/DTD/svg10.dtd">
<svg version="1.0" xmlns="http://www.w3.org/2000/svg"
 width="609.000000pt" height="609.000000pt" viewBox="0 0 609.000000 609.000000"
 preserveAspectRatio="xMidYMid meet">
<metadata>
Created by potrace 1.14, written by Peter Selinger 2001-2017
</metadata>
<g transform="translate(0.000000,609.000000) scale(0.100000,-0.100000)"
fill="#000000" stroke="none">
<path d="M2839 6076 c-2 -2 -42 -7 -89 -10 -47 -4 -92 -9 -100 -11 -8 -2 -33
-6 -55 -9 -33 -4 -112 -18 -220 -40 -151 -30 -490 -144 -565 -189 -19 -12 -36
-21 -37 -19 -4 3 -120 -53 -198 -96 -207 -114 -413 -261 -578 -412 -95 -86
-273 -270 -263 -270 2 0 -16 -21 -40 -47 -24 -27 -44 -51 -44 -54 0 -3 -10
-17 -22 -31 -13 -14 -30 -35 -38 -48 -8 -12 -21 -28 -28 -36 -6 -7 -12 -17
-12 -22 0 -6 -4 -12 -8 -14 -14 -5 -140 -213 -203 -333 -97 -188 -176 -393
-239 -620 -12 -43 -24 -88 -25 -100 -2 -11 -11 -56 -20 -100 -9 -44 -18 -98
-21 -120 -3 -22 -7 -49 -9 -60 -20 -97 -27 -511 -12 -670 44 -457 188 -893
421 -1280 33 -55 63 -101 68 -103 4 -2 8 -8 8 -14 0 -9 157 -225 185 -254 5
-6 35 -39 65 -74 65 -75 176 -186 251 -253 30 -26 63 -56 74 -66 11 -10 38
-31 60 -47 22 -16 46 -35 53 -42 8 -6 35 -26 60 -44 26 -17 48 -35 50 -40 2
-4 10 -8 18 -8 8 0 14 -4 14 -10 0 -5 5 -10 11 -10 6 0 25 -11 43 -25 18 -14
38 -25 44 -25 6 0 12 -4 14 -8 11 -26 452 -243 543 -266 6 -2 17 -6 25 -9 131
-53 474 -134 645 -153 33 -3 69 -8 80 -11 37 -9 489 -11 565 -2 207 23 327 44
486 84 303 77 572 191 849 358 11 7 34 22 52 34 17 13 35 23 38 23 3 0 23 12
43 28 20 15 41 30 47 34 85 64 161 123 186 145 151 133 222 204 372 373 48 54
156 202 218 300 95 148 94 147 121 200 13 25 26 46 31 48 4 2 7 7 7 12 0 4 18
48 41 96 127 272 216 567 254 839 3 22 8 51 10 65 21 118 28 502 12 670 -8 94
-33 256 -47 310 -5 19 -11 49 -14 65 -28 173 -146 499 -264 725 -36 69 -70
135 -76 147 -6 13 -14 23 -18 23 -5 0 -8 5 -8 10 0 22 -190 293 -270 384 -110
127 -213 231 -321 326 -41 36 -76 67 -79 70 -3 3 -36 29 -75 57 -38 29 -74 56
-80 61 -24 19 -214 142 -220 142 -4 0 -19 8 -33 19 -65 46 -323 169 -452 216
-117 42 -330 106 -398 120 -158 31 -242 46 -294 50 -35 4 -74 9 -88 12 -29 6
-495 14 -501 9z"/>
</g>
</svg>
